<svg xmlns="http://www.w3.org/2000/svg" width="14.634" height="22.202" viewBox="0 0 14.634 22.202">
  <g id="電話のアイコン_2_" data-name="電話のアイコン (2)" transform="translate(-150.921 60.684) rotate(-21)">
    <path id="パス_14" data-name="パス 14" d="M166.728,6.218l1.9-.2a.791.791,0,0,0,.707-.787V1.2a.792.792,0,0,0-.723-.789L163.961,0a.791.791,0,0,0-.826.559s-.354,1.033-.569,1.881a35.452,35.452,0,0,0,0,15.949c.215.847.569,1.881.569,1.881a.79.79,0,0,0,.826.559l4.652-.4a.792.792,0,0,0,.723-.788V15.607a.792.792,0,0,0-.707-.787l-1.9-.2a.792.792,0,0,1-.7-.72,20.088,20.088,0,0,1-.294-3.479,20.091,20.091,0,0,1,.294-3.479A.792.792,0,0,1,166.728,6.218Z" transform="translate(0 0)" fill="#10467e"/>
  </g>
</svg>
